<svg width="52" height="8" viewBox="0 0 52 8" fill="none" xmlns="http://www.w3.org/2000/svg">
<g clip-path="url(#clip0_2_4077)">
<rect width="52" height="8" fill="white"/>
<rect x="1" y="5" width="1" height="1" fill="#00FFFF" fill-opacity="0.5"/>
<rect x="44" y="5" width="1" height="1" fill="#00FFFF" fill-opacity="0.5"/>
<rect x="13" y="5" width="1" height="1" fill="#00FFFF" fill-opacity="0.5"/>
<rect x="14" y="5" width="1" height="1" fill="#00FFFF" fill-opacity="0.5"/>
<rect x="15" y="6" width="1" height="1" fill="#00FFFF" fill-opacity="0.5"/>
<rect x="15" y="4" width="1" height="1" fill="#00FFFF" fill-opacity="0.5"/>
<rect x="46" y="3" width="1" height="1" fill="#00FFFF" fill-opacity="0.5"/>
<rect x="45" y="3" width="1" height="1" fill="#00FFFF" fill-opacity="0.5"/>
<rect x="46" y="5" width="1" height="1" fill="#00FFFF" fill-opacity="0.5"/>
<rect x="46" y="4" width="1" height="1" fill="#00FFFF" fill-opacity="0.5"/>
<rect x="46" y="6" width="1" height="1" fill="#00FFFF" fill-opacity="0.5"/>
<rect x="46" y="7" width="1" height="1" fill="#00FFFF" fill-opacity="0.5"/>
<rect x="45" y="7" width="1" height="1" fill="#00FFFF" fill-opacity="0.5"/>
<rect x="16" y="3" width="1" height="1" fill="#00FFFF" fill-opacity="0.5"/>
<rect x="16" y="7" width="1" height="1" fill="#00FFFF" fill-opacity="0.5"/>
<rect x="49" y="7" width="1" height="1" fill="#00FFFF" fill-opacity="0.5"/>
<rect x="38" y="7" width="1" height="1" fill="#00FFFF" fill-opacity="0.5"/>
<rect x="19" y="7" width="1" height="1" fill="#00FFFF" fill-opacity="0.5"/>
<rect x="49" y="3" width="1" height="1" fill="#00FFFF" fill-opacity="0.5"/>
<rect x="38" y="3" width="1" height="1" fill="#00FFFF" fill-opacity="0.5"/>
<rect x="19" y="3" width="1" height="1" fill="#00FFFF" fill-opacity="0.5"/>
<rect x="49" y="5" width="1" height="1" fill="#00FFFF" fill-opacity="0.5"/>
<rect x="38" y="5" width="1" height="1" fill="#00FFFF" fill-opacity="0.5"/>
<rect x="39" y="5" width="1" height="1" fill="#00FFFF" fill-opacity="0.5"/>
<rect x="41" y="7" width="1" height="1" fill="#00FFFF" fill-opacity="0.5"/>
<rect x="19" y="5" width="1" height="1" fill="#00FFFF" fill-opacity="0.5"/>
<rect x="50" y="7" width="1" height="1" fill="#00FFFF" fill-opacity="0.5"/>
<rect x="39" y="7" width="1" height="1" fill="#00FFFF" fill-opacity="0.5"/>
<rect x="20" y="7" width="1" height="1" fill="#00FFFF" fill-opacity="0.5"/>
<rect x="50" y="3" width="1" height="1" fill="#00FFFF" fill-opacity="0.5"/>
<rect x="39" y="3" width="1" height="1" fill="#00FFFF" fill-opacity="0.5"/>
<rect x="20" y="3" width="1" height="1" fill="#00FFFF" fill-opacity="0.5"/>
<rect x="50" y="5" width="1" height="1" fill="#00FFFF" fill-opacity="0.5"/>
<rect x="40" y="6" width="1" height="1" fill="#00FFFF" fill-opacity="0.5"/>
<rect x="20" y="5" width="1" height="1" fill="#00FFFF" fill-opacity="0.5"/>
<rect x="51" y="7" width="1" height="1" fill="#00FFFF" fill-opacity="0.5"/>
<rect x="40" y="7" width="1" height="1" fill="#00FFFF" fill-opacity="0.5"/>
<rect x="21" y="7" width="1" height="1" fill="#00FFFF" fill-opacity="0.5"/>
<rect x="51" y="3" width="1" height="1" fill="#00FFFF" fill-opacity="0.5"/>
<rect x="40" y="3" width="1" height="1" fill="#00FFFF" fill-opacity="0.5"/>
<rect x="21" y="3" width="1" height="1" fill="#00FFFF" fill-opacity="0.5"/>
<rect x="51" y="5" width="1" height="1" fill="#00FFFF" fill-opacity="0.5"/>
<rect x="40" y="5" width="1" height="1" fill="#00FFFF" fill-opacity="0.5"/>
<rect x="21" y="5" width="1" height="1" fill="#00FFFF" fill-opacity="0.5"/>
<rect x="51" y="4" width="1" height="1" fill="#00FFFF" fill-opacity="0.5"/>
<rect x="40" y="4" width="1" height="1" fill="#00FFFF" fill-opacity="0.5"/>
<rect x="21" y="4" width="1" height="1" fill="#00FFFF" fill-opacity="0.5"/>
<rect x="49" y="4" width="1" height="1" fill="#00FFFF" fill-opacity="0.5"/>
<rect x="19" y="4" width="1" height="1" fill="#00FFFF" fill-opacity="0.5"/>
<rect x="49" y="6" width="1" height="1" fill="#00FFFF" fill-opacity="0.5"/>
<rect x="38" y="6" width="1" height="1" fill="#00FFFF" fill-opacity="0.5"/>
<rect x="19" y="6" width="1" height="1" fill="#00FFFF" fill-opacity="0.5"/>
<rect x="4" y="5" width="1" height="1" fill="#00FFFF" fill-opacity="0.5"/>
<rect x="7" y="5" width="1" height="1" fill="#00FFFF" fill-opacity="0.5"/>
<rect x="10" y="5" width="1" height="1" fill="#00FFFF" fill-opacity="0.5"/>
<rect x="1" y="2" width="1" height="1" fill="#00FFFF" fill-opacity="0.5"/>
<rect x="44" y="2" width="1" height="1" fill="#00FFFF" fill-opacity="0.5"/>
<rect x="13" y="2" width="1" height="1" fill="#00FFFF" fill-opacity="0.5"/>
<rect x="27" y="4" width="1" height="1" fill="#00FFFF" fill-opacity="0.5"/>
<rect x="30" y="4" width="1" height="1" fill="#00FFFF" fill-opacity="0.5"/>
<rect x="33" y="4" width="1" height="1" fill="#00FFFF" fill-opacity="0.5"/>
<rect x="34" y="4" width="1" height="1" fill="#00FFFF" fill-opacity="0.5"/>
<rect x="35" y="3" width="1" height="1" fill="#00FFFF" fill-opacity="0.5"/>
<rect x="30" y="3" width="1" height="1" fill="#00FFFF" fill-opacity="0.5"/>
<rect x="33" y="3" width="1" height="1" fill="#00FFFF" fill-opacity="0.5"/>
<rect x="1" width="1" height="1" fill="#00FFFF" fill-opacity="0.5"/>
<rect x="44" width="1" height="1" fill="#00FFFF" fill-opacity="0.5"/>
<rect x="13" width="1" height="1" fill="#00FFFF" fill-opacity="0.5"/>
<rect x="27" y="2" width="1" height="1" fill="#00FFFF" fill-opacity="0.5"/>
<rect x="1" y="6" width="1" height="1" fill="#00FFFF" fill-opacity="0.5"/>
<rect x="44" y="6" width="1" height="1" fill="#00FFFF" fill-opacity="0.5"/>
<rect x="13" y="6" width="1" height="1" fill="#00FFFF" fill-opacity="0.5"/>
<rect x="4" y="6" width="1" height="1" fill="#00FFFF" fill-opacity="0.5"/>
<rect x="7" y="6" width="1" height="1" fill="#00FFFF" fill-opacity="0.5"/>
<rect x="10" y="6" width="1" height="1" fill="#00FFFF" fill-opacity="0.5"/>
<rect x="1" y="1" width="1" height="1" fill="#00FFFF" fill-opacity="0.5"/>
<rect x="44" y="1" width="1" height="1" fill="#00FFFF" fill-opacity="0.5"/>
<rect x="13" y="1" width="1" height="1" fill="#00FFFF" fill-opacity="0.5"/>
<rect x="29" width="1" height="1" fill="#00FFFF" fill-opacity="0.5"/>
<rect x="30" width="1" height="1" fill="#00FFFF" fill-opacity="0.5"/>
<rect x="29" y="7" width="1" height="1" fill="#00FFFF" fill-opacity="0.5"/>
<rect x="29" y="3" width="1" height="1" fill="#00FFFF" fill-opacity="0.5"/>
<rect x="28" width="1" height="1" fill="#00FFFF" fill-opacity="0.5"/>
<rect x="28" y="7" width="1" height="1" fill="#00FFFF" fill-opacity="0.5"/>
<rect x="27" y="7" width="1" height="1" fill="#00FFFF" fill-opacity="0.5"/>
<rect x="1" y="7" width="1" height="1" fill="#00FFFF" fill-opacity="0.5"/>
<rect x="44" y="7" width="1" height="1" fill="#00FFFF" fill-opacity="0.5"/>
<rect x="13" y="7" width="1" height="1" fill="#00FFFF" fill-opacity="0.5"/>
<rect x="4" y="7" width="1" height="1" fill="#00FFFF" fill-opacity="0.5"/>
<rect x="7" y="7" width="1" height="1" fill="#00FFFF" fill-opacity="0.5"/>
<rect x="10" y="7" width="1" height="1" fill="#00FFFF" fill-opacity="0.5"/>
<rect x="27" y="1" width="1" height="1" fill="#00FFFF" fill-opacity="0.5"/>
<rect x="27" width="1" height="1" fill="#00FFFF" fill-opacity="0.5"/>
<rect x="27" y="3" width="1" height="1" fill="#00FFFF" fill-opacity="0.5"/>
<rect x="1" y="3" width="1" height="1" fill="#00FFFF" fill-opacity="0.5"/>
<rect x="44" y="3" width="1" height="1" fill="#00FFFF" fill-opacity="0.5"/>
<rect x="13" y="3" width="1" height="1" fill="#00FFFF" fill-opacity="0.5"/>
<rect x="4" y="3" width="1" height="1" fill="#00FFFF" fill-opacity="0.5"/>
<rect x="7" y="3" width="1" height="1" fill="#00FFFF" fill-opacity="0.5"/>
<rect x="10" y="3" width="1" height="1" fill="#00FFFF" fill-opacity="0.5"/>
<rect x="6" y="3" width="1" height="1" fill="#00FFFF" fill-opacity="0.5"/>
<rect x="9" y="3" width="1" height="1" fill="#00FFFF" fill-opacity="0.5"/>
<rect x="5" y="4" width="1" height="1" fill="#00FFFF" fill-opacity="0.5"/>
<rect x="8" y="4" width="1" height="1" fill="#00FFFF" fill-opacity="0.5"/>
<rect x="27" y="5" width="1" height="1" fill="#00FFFF" fill-opacity="0.5"/>
<rect x="30" y="5" width="1" height="1" fill="#00FFFF" fill-opacity="0.5"/>
<rect x="33" y="5" width="1" height="1" fill="#00FFFF" fill-opacity="0.5"/>
<rect x="1" y="4" width="1" height="1" fill="#00FFFF" fill-opacity="0.5"/>
<rect x="44" y="4" width="1" height="1" fill="#00FFFF" fill-opacity="0.5"/>
<rect x="13" y="4" width="1" height="1" fill="#00FFFF" fill-opacity="0.5"/>
<rect x="4" y="4" width="1" height="1" fill="#00FFFF" fill-opacity="0.5"/>
<rect x="7" y="4" width="1" height="1" fill="#00FFFF" fill-opacity="0.5"/>
<rect x="10" y="4" width="1" height="1" fill="#00FFFF" fill-opacity="0.5"/>
<rect x="27" y="6" width="1" height="1" fill="#00FFFF" fill-opacity="0.5"/>
<rect x="30" y="6" width="1" height="1" fill="#00FFFF" fill-opacity="0.5"/>
<rect x="33" y="6" width="1" height="1" fill="#00FFFF" fill-opacity="0.5"/>
<rect x="30" y="7" width="1" height="1" fill="#00FFFF" fill-opacity="0.5"/>
<rect x="33" y="7" width="1" height="1" fill="#00FFFF" fill-opacity="0.5"/>
<rect y="5" width="1" height="1" fill="#FF00FF" fill-opacity="0.5"/>
<rect x="12" y="5" width="1" height="1" fill="#FF00FF" fill-opacity="0.5"/>
<rect x="13" y="5" width="1" height="1" fill="#FF00FF" fill-opacity="0.5"/>
<rect x="14" y="6" width="1" height="1" fill="#FF00FF" fill-opacity="0.5"/>
<rect x="14" y="4" width="1" height="1" fill="#FF00FF" fill-opacity="0.5"/>
<rect x="15" y="3" width="1" height="1" fill="#FF00FF" fill-opacity="0.5"/>
<rect x="15" y="7" width="1" height="1" fill="#FF00FF" fill-opacity="0.5"/>
<rect x="18" y="7" width="1" height="1" fill="#FF00FF" fill-opacity="0.5"/>
<rect x="18" y="3" width="1" height="1" fill="#FF00FF" fill-opacity="0.5"/>
<rect x="18" y="5" width="1" height="1" fill="#FF00FF" fill-opacity="0.5"/>
<rect x="19" y="7" width="1" height="1" fill="#FF00FF" fill-opacity="0.5"/>
<rect x="19" y="3" width="1" height="1" fill="#FF00FF" fill-opacity="0.5"/>
<rect x="19" y="5" width="1" height="1" fill="#FF00FF" fill-opacity="0.5"/>
<rect x="20" y="7" width="1" height="1" fill="#FF00FF" fill-opacity="0.5"/>
<rect x="20" y="3" width="1" height="1" fill="#FF00FF" fill-opacity="0.5"/>
<rect x="20" y="5" width="1" height="1" fill="#FF00FF" fill-opacity="0.5"/>
<rect x="20" y="4" width="1" height="1" fill="#FF00FF" fill-opacity="0.5"/>
<rect x="18" y="4" width="1" height="1" fill="#FF00FF" fill-opacity="0.5"/>
<rect x="18" y="6" width="1" height="1" fill="#FF00FF" fill-opacity="0.5"/>
<rect x="3" y="5" width="1" height="1" fill="#FF00FF" fill-opacity="0.5"/>
<rect x="6" y="5" width="1" height="1" fill="#FF00FF" fill-opacity="0.5"/>
<rect x="9" y="5" width="1" height="1" fill="#FF00FF" fill-opacity="0.5"/>
<rect y="2" width="1" height="1" fill="#FF00FF" fill-opacity="0.5"/>
<rect x="12" y="2" width="1" height="1" fill="#FF00FF" fill-opacity="0.5"/>
<rect width="1" height="1" fill="#FF00FF" fill-opacity="0.5"/>
<rect x="12" width="1" height="1" fill="#FF00FF" fill-opacity="0.5"/>
<rect y="6" width="1" height="1" fill="#FF00FF" fill-opacity="0.5"/>
<rect x="12" y="6" width="1" height="1" fill="#FF00FF" fill-opacity="0.5"/>
<rect x="3" y="6" width="1" height="1" fill="#FF00FF" fill-opacity="0.5"/>
<rect x="6" y="6" width="1" height="1" fill="#FF00FF" fill-opacity="0.5"/>
<rect x="9" y="6" width="1" height="1" fill="#FF00FF" fill-opacity="0.5"/>
<rect y="1" width="1" height="1" fill="#FF00FF" fill-opacity="0.5"/>
<rect x="12" y="1" width="1" height="1" fill="#FF00FF" fill-opacity="0.5"/>
<rect y="7" width="1" height="1" fill="#FF00FF" fill-opacity="0.5"/>
<rect x="12" y="7" width="1" height="1" fill="#FF00FF" fill-opacity="0.5"/>
<rect x="3" y="7" width="1" height="1" fill="#FF00FF" fill-opacity="0.5"/>
<rect x="6" y="7" width="1" height="1" fill="#FF00FF" fill-opacity="0.5"/>
<rect x="9" y="7" width="1" height="1" fill="#FF00FF" fill-opacity="0.5"/>
<rect y="3" width="1" height="1" fill="#FF00FF" fill-opacity="0.5"/>
<rect x="12" y="3" width="1" height="1" fill="#FF00FF" fill-opacity="0.5"/>
<rect x="3" y="3" width="1" height="1" fill="#FF00FF" fill-opacity="0.5"/>
<rect x="6" y="3" width="1" height="1" fill="#FF00FF" fill-opacity="0.5"/>
<rect x="9" y="3" width="1" height="1" fill="#FF00FF" fill-opacity="0.5"/>
<rect x="5" y="3" width="1" height="1" fill="#FF00FF" fill-opacity="0.5"/>
<rect x="8" y="3" width="1" height="1" fill="#FF00FF" fill-opacity="0.5"/>
<rect x="4" y="4" width="1" height="1" fill="#FF00FF" fill-opacity="0.5"/>
<rect x="7" y="4" width="1" height="1" fill="#FF00FF" fill-opacity="0.5"/>
<rect y="4" width="1" height="1" fill="#FF00FF" fill-opacity="0.5"/>
<rect x="12" y="4" width="1" height="1" fill="#FF00FF" fill-opacity="0.5"/>
<rect x="3" y="4" width="1" height="1" fill="#FF00FF" fill-opacity="0.5"/>
<rect x="6" y="4" width="1" height="1" fill="#FF00FF" fill-opacity="0.5"/>
<rect x="9" y="4" width="1" height="1" fill="#FF00FF" fill-opacity="0.5"/>
<rect x="43" y="5" width="1" height="1" fill="#FF00FF" fill-opacity="0.5"/>
<rect x="45" y="3" width="1" height="1" fill="#FF00FF" fill-opacity="0.5"/>
<rect x="44" y="3" width="1" height="1" fill="#FF00FF" fill-opacity="0.5"/>
<rect x="45" y="5" width="1" height="1" fill="#FF00FF" fill-opacity="0.5"/>
<rect x="45" y="4" width="1" height="1" fill="#FF00FF" fill-opacity="0.5"/>
<rect x="45" y="6" width="1" height="1" fill="#FF00FF" fill-opacity="0.5"/>
<rect x="45" y="7" width="1" height="1" fill="#FF00FF" fill-opacity="0.5"/>
<rect x="44" y="7" width="1" height="1" fill="#FF00FF" fill-opacity="0.5"/>
<rect x="48" y="7" width="1" height="1" fill="#FF00FF" fill-opacity="0.5"/>
<rect x="37" y="7" width="1" height="1" fill="#FF00FF" fill-opacity="0.5"/>
<rect x="48" y="3" width="1" height="1" fill="#FF00FF" fill-opacity="0.5"/>
<rect x="37" y="3" width="1" height="1" fill="#FF00FF" fill-opacity="0.5"/>
<rect x="48" y="5" width="1" height="1" fill="#FF00FF" fill-opacity="0.5"/>
<rect x="37" y="5" width="1" height="1" fill="#FF00FF" fill-opacity="0.5"/>
<rect x="38" y="5" width="1" height="1" fill="#FF00FF" fill-opacity="0.5"/>
<rect x="40" y="7" width="1" height="1" fill="#FF00FF" fill-opacity="0.5"/>
<rect x="49" y="7" width="1" height="1" fill="#FF00FF" fill-opacity="0.5"/>
<rect x="38" y="7" width="1" height="1" fill="#FF00FF" fill-opacity="0.5"/>
<rect x="49" y="3" width="1" height="1" fill="#FF00FF" fill-opacity="0.5"/>
<rect x="38" y="3" width="1" height="1" fill="#FF00FF" fill-opacity="0.5"/>
<rect x="49" y="5" width="1" height="1" fill="#FF00FF" fill-opacity="0.5"/>
<rect x="39" y="6" width="1" height="1" fill="#FF00FF" fill-opacity="0.5"/>
<rect x="50" y="7" width="1" height="1" fill="#FF00FF" fill-opacity="0.5"/>
<rect x="39" y="7" width="1" height="1" fill="#FF00FF" fill-opacity="0.5"/>
<rect x="50" y="3" width="1" height="1" fill="#FF00FF" fill-opacity="0.5"/>
<rect x="39" y="3" width="1" height="1" fill="#FF00FF" fill-opacity="0.5"/>
<rect x="50" y="5" width="1" height="1" fill="#FF00FF" fill-opacity="0.5"/>
<rect x="39" y="5" width="1" height="1" fill="#FF00FF" fill-opacity="0.5"/>
<rect x="50" y="4" width="1" height="1" fill="#FF00FF" fill-opacity="0.5"/>
<rect x="39" y="4" width="1" height="1" fill="#FF00FF" fill-opacity="0.5"/>
<rect x="48" y="4" width="1" height="1" fill="#FF00FF" fill-opacity="0.5"/>
<rect x="48" y="6" width="1" height="1" fill="#FF00FF" fill-opacity="0.5"/>
<rect x="37" y="6" width="1" height="1" fill="#FF00FF" fill-opacity="0.5"/>
<rect x="43" y="2" width="1" height="1" fill="#FF00FF" fill-opacity="0.5"/>
<rect x="26" y="4" width="1" height="1" fill="#FF00FF" fill-opacity="0.5"/>
<rect x="29" y="4" width="1" height="1" fill="#FF00FF" fill-opacity="0.5"/>
<rect x="32" y="4" width="1" height="1" fill="#FF00FF" fill-opacity="0.5"/>
<rect x="33" y="4" width="1" height="1" fill="#FF00FF" fill-opacity="0.5"/>
<rect x="34" y="3" width="1" height="1" fill="#FF00FF" fill-opacity="0.5"/>
<rect x="29" y="3" width="1" height="1" fill="#FF00FF" fill-opacity="0.5"/>
<rect x="32" y="3" width="1" height="1" fill="#FF00FF" fill-opacity="0.5"/>
<rect x="43" width="1" height="1" fill="#FF00FF" fill-opacity="0.5"/>
<rect x="26" y="2" width="1" height="1" fill="#FF00FF" fill-opacity="0.5"/>
<rect x="43" y="6" width="1" height="1" fill="#FF00FF" fill-opacity="0.5"/>
<rect x="43" y="1" width="1" height="1" fill="#FF00FF" fill-opacity="0.5"/>
<rect x="28" width="1" height="1" fill="#FF00FF" fill-opacity="0.5"/>
<rect x="29" width="1" height="1" fill="#FF00FF" fill-opacity="0.5"/>
<rect x="28" y="7" width="1" height="1" fill="#FF00FF" fill-opacity="0.5"/>
<rect x="28" y="3" width="1" height="1" fill="#FF00FF" fill-opacity="0.5"/>
<rect x="27" width="1" height="1" fill="#FF00FF" fill-opacity="0.5"/>
<rect x="27" y="7" width="1" height="1" fill="#FF00FF" fill-opacity="0.5"/>
<rect x="26" y="7" width="1" height="1" fill="#FF00FF" fill-opacity="0.5"/>
<rect x="43" y="7" width="1" height="1" fill="#FF00FF" fill-opacity="0.5"/>
<rect x="26" y="1" width="1" height="1" fill="#FF00FF" fill-opacity="0.5"/>
<rect x="26" width="1" height="1" fill="#FF00FF" fill-opacity="0.5"/>
<rect x="26" y="3" width="1" height="1" fill="#FF00FF" fill-opacity="0.5"/>
<rect x="43" y="3" width="1" height="1" fill="#FF00FF" fill-opacity="0.5"/>
<rect x="26" y="5" width="1" height="1" fill="#FF00FF" fill-opacity="0.5"/>
<rect x="29" y="5" width="1" height="1" fill="#FF00FF" fill-opacity="0.5"/>
<rect x="32" y="5" width="1" height="1" fill="#FF00FF" fill-opacity="0.5"/>
<rect x="43" y="4" width="1" height="1" fill="#FF00FF" fill-opacity="0.5"/>
<rect x="26" y="6" width="1" height="1" fill="#FF00FF" fill-opacity="0.5"/>
<rect x="29" y="6" width="1" height="1" fill="#FF00FF" fill-opacity="0.5"/>
<rect x="32" y="6" width="1" height="1" fill="#FF00FF" fill-opacity="0.5"/>
<rect x="29" y="7" width="1" height="1" fill="#FF00FF" fill-opacity="0.5"/>
<rect x="32" y="7" width="1" height="1" fill="#FF00FF" fill-opacity="0.5"/>
</g>
<defs>
<clipPath id="clip0_2_4077">
<rect width="52" height="8" fill="white"/>
</clipPath>
</defs>
</svg>
